<?xml version="1.0" encoding="utf-8"?>
<!-- Generator: Adobe Illustrator 23.0.1, SVG Export Plug-In . SVG Version: 6.00 Build 0)  -->
<svg version="1.1" id="Capa_1" xmlns="http://www.w3.org/2000/svg" xmlns:xlink="http://www.w3.org/1999/xlink" x="0px" y="0px"
	 viewBox="0 0 485.2 485.2" style="enable-background:new 0 0 485.2 485.2;" xml:space="preserve">
<style type="text/css">
	.st0{fill:#14BDEE;}
</style>
<g>
	<path class="st0" d="M60.7,75.8V15.2C60.7,6.8,67.4,0,75.8,0C84.2,0,91,6.8,91,15.2v60.7C91,84.2,84.2,91,75.8,91
		C67.4,91,60.7,84.2,60.7,75.8z M318.4,91c8.4,0,15.2-6.8,15.2-15.2V15.2c0-8.4-6.8-15.2-15.2-15.2c-8.4,0-15.2,6.8-15.2,15.2v60.7
		C303.3,84.2,310,91,318.4,91z M485.2,363.9c0,67-54.3,121.3-121.3,121.3c-67,0-121.3-54.3-121.3-121.3c0-67,54.3-121.3,121.3-121.3
		C430.9,242.6,485.2,296.9,485.2,363.9z M454.9,363.9c0-50.2-40.8-91-91-91c-50.2,0-91,40.8-91,91c0,50.2,40.8,91,91,91
		C414.1,454.9,454.9,414.1,454.9,363.9z M121.3,182H60.7v60.7h60.7V182z M60.7,333.6h60.7v-60.7H60.7V333.6z M151.6,242.6h60.7V182
		h-60.7V242.6z M151.6,333.6h60.7v-60.7h-60.7V333.6z M30.3,360.9V151.6h333.6v60.7h30.3V94c0-18.4-14.7-33.3-32.8-33.3h-12.6v15.2
		c0,16.7-13.6,30.3-30.3,30.3c-16.7,0-30.3-13.6-30.3-30.3V60.7h-182v15.2c0,16.7-13.6,30.3-30.3,30.3c-16.7,0-30.3-13.6-30.3-30.3
		V60.7H32.9C14.7,60.7,0,75.6,0,94v266.9c0,18.4,14.7,33.3,32.9,33.3h179.4v-30.3H32.9C31.5,363.9,30.3,362.5,30.3,360.9z
		 M303.3,242.6V182h-60.6v60.7H303.3z M409.4,363.9h-45.5v-45.5c0-8.4-6.8-15.2-15.2-15.2s-15.2,6.8-15.2,15.2v60.7
		c0,8.4,6.8,15.2,15.2,15.2h60.7c8.4,0,15.2-6.8,15.2-15.2C424.6,370.7,417.8,363.9,409.4,363.9z"/>
</g>
</svg>
