<?xml version="1.0" encoding="iso-8859-1"?>
<!-- Generator: Adobe Illustrator 19.0.0, SVG Export Plug-In . SVG Version: 6.00 Build 0)  -->
<svg version="1.1" id="Capa_1" xmlns="http://www.w3.org/2000/svg" xmlns:xlink="http://www.w3.org/1999/xlink" x="0px" y="0px"
	 viewBox="0 0 490 490" style="enable-background:new 0 0 490 490;" xml:space="preserve">
<g>
	<path d="M434.903,63.704H55.089C24.711,63.704,0,88.419,0,118.793v252.406c0,30.378,24.711,55.096,55.089,55.096h379.814
		c30.378,0,55.097-24.718,55.097-55.096V118.793C490,88.419,465.282,63.704,434.903,63.704z M474.687,371.199
		c0,21.937-17.847,39.784-39.784,39.784H55.089c-21.929,0-39.777-17.847-39.777-39.784V118.793
		c0-21.933,17.847-39.777,39.777-39.777h379.814c21.937,0,39.784,17.843,39.784,39.777V371.199z"/>
	<path d="M172.677,357.674l211.13-112.709l-211.13-112.717V357.674z M187.989,157.781l163.309,87.183l-163.309,87.183V157.781z"/>
</g>
<g>
</g>
<g>
</g>
<g>
</g>
<g>
</g>
<g>
</g>
<g>
</g>
<g>
</g>
<g>
</g>
<g>
</g>
<g>
</g>
<g>
</g>
<g>
</g>
<g>
</g>
<g>
</g>
<g>
</g>
</svg>
