<?xml version="1.0" encoding="utf-8"?>
<!-- Generator: Adobe Illustrator 23.0.1, SVG Export Plug-In . SVG Version: 6.00 Build 0)  -->
<svg version="1.1" id="Layer_1" xmlns="http://www.w3.org/2000/svg" xmlns:xlink="http://www.w3.org/1999/xlink" x="0px" y="0px"
	 viewBox="0 0 512 512" style="enable-background:new 0 0 512 512;" xml:space="preserve">
<style type="text/css">
	.st0{fill:#14BDEE;}
</style>
<g>
	<g>
		<g>
			<path class="st0" d="M454.6,371.8L292.8,103.6c-6.4-10.6-18-17.1-30.3-17.1s-24,6.6-30.3,17.1L70.4,371.8
				c-6.6,10.9-6.8,24.6-0.5,35.7c6.3,11.1,18.1,18,30.9,18h323.5c12.8,0,24.6-6.9,30.9-18C461.4,396.5,461.2,382.8,454.6,371.8z
				 M432.7,394.9c-1.7,3.1-5,5-8.5,5H100.7c-3.5,0-6.8-1.9-8.5-5c-1.7-3.1-1.7-6.8,0.1-9.8l161.8-268.3c1.8-2.9,5-4.7,8.4-4.7
				c3.4,0,6.6,1.8,8.4,4.7l161.8,268.3C434.4,388.1,434.5,391.9,432.7,394.9z"/>
		</g>
	</g>
	<g>
		<g>
			<path class="st0" d="M262.6,192.1c-9.8,0-17.4,5.2-17.4,14.5c0,28.3,3.3,69.1,3.3,97.4c0,7.4,6.4,10.5,14.1,10.5
				c5.7,0,13.8-3.1,13.8-10.5c0-28.3,3.3-69.1,3.3-97.4C279.8,197.3,271.9,192.1,262.6,192.1z"/>
		</g>
	</g>
	<g>
		<g>
			<path class="st0" d="M262.8,331c-10.5,0-18.3,8.3-18.3,18.3c0,9.8,7.9,18.3,18.3,18.3c9.8,0,18.1-8.6,18.1-18.3
				C280.9,339.3,272.6,331,262.8,331z"/>
		</g>
	</g>
</g>
</svg>
