<?xml version="1.0" encoding="utf-8"?>
<!-- Generator: Adobe Illustrator 23.0.1, SVG Export Plug-In . SVG Version: 6.00 Build 0)  -->
<svg version="1.1" id="Слой_1" xmlns="http://www.w3.org/2000/svg" xmlns:xlink="http://www.w3.org/1999/xlink" x="0px" y="0px"
	 viewBox="0 0 470 470" style="enable-background:new 0 0 470 470;" xml:space="preserve">
<style type="text/css">
	.st0{fill:#384158;}
</style>
<g>
	<path class="st0" d="M251.8,118v23.6c0,1.5,1.2,2.8,2.8,2.8c1.5,0,2.8-1.2,2.8-2.8V118c0-1.5-1.2-2.8-2.8-2.8
		C253,115.4,251.8,116.6,251.8,118z"/>
	<path class="st0" d="M322.9,229.7l-21.2-21.2c-0.5-0.5-1.2-0.8-1.9-0.8c-0.7,0-1.4,0.3-1.9,0.8l-1.9,1.9l-3.9-3.9
		c5.3-6.2,8.5-14.1,8.5-22.9c0-19.4-15.8-35.2-35.2-35.2s-35.3,15.8-35.3,35.2s15.8,35.2,35.2,35.2c8.8,0,16.7-3.2,22.9-8.5l3.9,3.9
		l-1.9,1.9c-1.1,1.1-1.1,2.8,0,3.8l21.2,21.2c0.6,0.6,1.2,0.8,1.9,0.8c0.7,0,1.4-0.3,1.9-0.8l7.7-7.7c0.5-0.5,0.8-1.2,0.8-1.9
		C323.7,230.9,323.4,230.2,322.9,229.7z M235.5,183.6c0-16.4,13.3-29.8,29.8-29.8c16.4,0,29.8,13.3,29.8,29.8s-13.3,29.8-29.8,29.8
		C248.9,213.4,235.5,200.1,235.5,183.6z M313.3,235.4L296,218.1l1.9-1.9l1.9-1.9l17.3,17.3L313.3,235.4z"/>
	<path class="st0" d="M236.7,213.4h-77.4V77.6h71v29.7c0,1.5,1.2,2.8,2.8,2.8h29.7v30.4c0,1.5,1.2,2.8,2.8,2.8
		c1.5,0,2.8-1.2,2.8-2.8v-33c0-0.1,0-0.1,0-0.3c0-0.1,0-0.1-0.1-0.2v-0.2c0-0.1-0.1-0.1-0.1-0.2l0,0c0-0.1-0.1-0.1-0.1-0.2l0,0
		c-0.1-0.1-0.1-0.1-0.1-0.2c0,0,0,0,0-0.1c-0.1-0.1-0.1-0.1-0.1-0.1v-0.1c-0.1-0.1-0.1-0.1-0.1-0.1s0-0.1-0.1-0.1
		c-0.1-0.1-0.1-0.1-0.1-0.1l0,0L235.1,73l0,0c-0.1-0.1-0.1-0.1-0.1-0.1l-0.1-0.1c-0.1-0.1-0.1-0.1-0.1-0.1s-0.1,0-0.1-0.1
		c-0.1-0.1-0.1-0.1-0.1-0.1s0,0-0.1,0c-0.1-0.1-0.1-0.1-0.2-0.1l0,0c-0.1-0.1-0.1-0.1-0.2-0.1c0,0,0,0-0.1,0s-0.1-0.1-0.2-0.1h-0.1
		c-0.1,0-0.1,0-0.1-0.1c-0.1,0-0.1,0-0.3,0h-76.6c-1.5,0-2.8,1.2-2.8,2.8v141.2c0,1.5,1.2,2.8,2.8,2.8h80.1c1.5,0,2.8-1.2,2.8-2.8
		C239.5,214.6,238.1,213.4,236.7,213.4L236.7,213.4z M235.7,81.5l23.1,23.1h-23.1L235.7,81.5L235.7,81.5z"/>
	<path class="st0" d="M265.3,159.3c-13.5,0-24.4,10.9-24.4,24.4s10.9,24.4,24.4,24.4s24.4-10.9,24.4-24.4S278.8,159.3,265.3,159.3
		L265.3,159.3z M265.3,202.6c-10.4,0-19-8.6-19-19s8.6-19,19-19s19,8.6,19,19C284.3,194.1,275.8,202.6,265.3,202.6z"/>
	<path class="st0" d="M194.4,141.3l22.8,24.1c0.5,0.6,1.2,0.9,2,0.9c0.7,0,1.4-0.3,2-0.9l15.9-16.7l1.3,1.4c1,1.1,2.8,1.1,3.8,0.1
		c1.1-1,1.1-2.8,0.1-3.8l-3.3-3.6c-0.5-0.6-1.2-0.9-2-0.9c-0.7,0-1.4,0.3-2,0.9l-15.9,16.7l-22.8-24.1c-0.5-0.6-1.2-0.9-2-0.9
		c-0.7,0-1.4,0.3-2,0.9l-26.9,28.5c-0.5,0.5-0.7,1.2-0.7,1.8v39.5c0,1.5,1.2,2.8,2.8,2.8h60.4c1.5,0,2.8-1.2,2.8-2.8
		c0-1.5-1.2-2.8-2.8-2.8h-57.8v-35.7L194.4,141.3z"/>
	<path class="st0" d="M207.8,130.3c0,6.3,5.1,11.4,11.4,11.4s11.4-5.1,11.4-11.4s-5.1-11.4-11.4-11.4S207.8,124,207.8,130.3z
		 M225.2,130.3c0,3.3-2.7,6-6,6s-6-2.7-6-6s2.7-6,6-6S225.2,127,225.2,130.3z"/>
	<path class="st0" d="M222.1,83h-54.7c-1.5,0-2.8,1.2-2.8,2.8v64.3c0,1.5,1.2,2.8,2.8,2.8s2.8-1.2,2.8-2.8V88.4h52
		c1.5,0,2.8-1.2,2.8-2.8C224.9,84.2,223.6,83,222.1,83z"/>
</g>
</svg>
