<?xml version="1.0" encoding="utf-8"?>
<!-- Generator: Adobe Illustrator 23.0.1, SVG Export Plug-In . SVG Version: 6.00 Build 0)  -->
<svg version="1.1" id="Слой_1" xmlns="http://www.w3.org/2000/svg" xmlns:xlink="http://www.w3.org/1999/xlink" x="0px" y="0px"
	 viewBox="0 0 470 470" style="enable-background:new 0 0 470 470;" xml:space="preserve">
<style type="text/css">
	.st0{fill:#384158;}
</style>
<g>
	<path class="st0" d="M259.3,196.4V220c0,1.5,1.2,2.8,2.8,2.8c1.5,0,2.8-1.2,2.8-2.8v-23.6c0-1.5-1.2-2.8-2.8-2.8
		C260.5,193.8,259.3,195,259.3,196.4z"/>
	<path class="st0" d="M330.4,308.1l-21.2-21.2c-0.5-0.5-1.2-0.8-1.9-0.8c-0.7,0-1.4,0.3-1.9,0.8l-1.9,1.9l-3.9-3.9
		c5.3-6.2,8.5-14.1,8.5-22.9c0-19.4-15.8-35.2-35.2-35.2s-35.3,15.8-35.3,35.2s15.8,35.2,35.2,35.2c8.8,0,16.7-3.2,22.9-8.5l3.9,3.9
		l-1.9,1.9c-1.1,1.1-1.1,2.8,0,3.8l21.2,21.2c0.6,0.6,1.2,0.8,1.9,0.8c0.7,0,1.4-0.3,1.9-0.8l7.7-7.7c0.5-0.5,0.8-1.2,0.8-1.9
		C331.2,309.3,330.9,308.6,330.4,308.1z M243,262c0-16.4,13.3-29.8,29.8-29.8c16.4,0,29.8,13.3,29.8,29.8s-13.3,29.8-29.8,29.8
		C256.4,291.8,243,278.5,243,262z M320.8,313.8l-17.3-17.3l1.9-1.9l1.9-1.9l17.3,17.3L320.8,313.8z"/>
	<path class="st0" d="M244.2,291.8h-77.4V156h71v29.7c0,1.5,1.2,2.8,2.8,2.8h29.7v30.4c0,1.5,1.2,2.8,2.8,2.8c1.5,0,2.8-1.2,2.8-2.8
		v-33c0-0.1,0-0.1,0-0.3c0-0.1,0-0.1-0.1-0.2v-0.2c0-0.1-0.1-0.1-0.1-0.2l0,0c0-0.1-0.1-0.1-0.1-0.2l0,0c-0.1-0.1-0.1-0.1-0.1-0.2
		c0,0,0,0,0-0.1c-0.1-0.1-0.1-0.1-0.1-0.1v-0.1c-0.1-0.1-0.1-0.1-0.1-0.1s0-0.1-0.1-0.1c-0.1-0.1-0.1-0.1-0.1-0.1l0,0l-32.5-32.6
		l0,0c-0.1-0.1-0.1-0.1-0.1-0.1l-0.1-0.1c-0.1-0.1-0.1-0.1-0.1-0.1s-0.1,0-0.1-0.1c-0.1-0.1-0.1-0.1-0.1-0.1s0,0-0.1,0
		c-0.1-0.1-0.1-0.1-0.2-0.1l0,0c-0.1-0.1-0.1-0.1-0.2-0.1c0,0,0,0-0.1,0s-0.1-0.1-0.2-0.1h-0.1c-0.1,0-0.1,0-0.1-0.1
		c-0.1,0-0.1,0-0.3,0h-76.6c-1.5,0-2.8,1.2-2.8,2.8v141.2c0,1.5,1.2,2.8,2.8,2.8h80.1c1.5,0,2.8-1.2,2.8-2.8
		C247,293,245.6,291.8,244.2,291.8L244.2,291.8z M243.2,159.9l23.1,23.1h-23.1L243.2,159.9L243.2,159.9z"/>
	<path class="st0" d="M272.8,237.7c-13.5,0-24.4,10.9-24.4,24.4c0,13.5,10.9,24.4,24.4,24.4s24.4-10.9,24.4-24.4
		C297.2,248.6,286.3,237.7,272.8,237.7L272.8,237.7z M272.8,281c-10.4,0-19-8.6-19-19s8.6-19,19-19s19,8.6,19,19
		C291.8,272.5,283.3,281,272.8,281z"/>
	<path class="st0" d="M201.9,219.7l22.8,24.1c0.5,0.6,1.2,0.9,2,0.9c0.7,0,1.4-0.3,2-0.9l15.9-16.7l1.3,1.4c1,1.1,2.8,1.1,3.8,0.1
		c1.1-1,1.1-2.8,0.1-3.8l-3.3-3.6c-0.5-0.6-1.2-0.9-2-0.9c-0.7,0-1.4,0.3-2,0.9l-15.9,16.7l-22.8-24.1c-0.5-0.6-1.2-0.9-2-0.9
		c-0.7,0-1.4,0.3-2,0.9l-26.9,28.5c-0.5,0.5-0.7,1.2-0.7,1.8v39.5c0,1.5,1.2,2.8,2.8,2.8h60.4c1.5,0,2.8-1.2,2.8-2.8
		c0-1.5-1.2-2.8-2.8-2.8h-57.8v-35.7L201.9,219.7z"/>
	<path class="st0" d="M215.3,208.7c0,6.3,5.1,11.4,11.4,11.4s11.4-5.1,11.4-11.4s-5.1-11.4-11.4-11.4S215.3,202.4,215.3,208.7z
		 M232.7,208.7c0,3.3-2.7,6-6,6s-6-2.7-6-6s2.7-6,6-6S232.7,205.4,232.7,208.7z"/>
	<path class="st0" d="M229.6,161.4h-54.7c-1.5,0-2.8,1.2-2.8,2.8v64.3c0,1.5,1.2,2.8,2.8,2.8s2.8-1.2,2.8-2.8v-61.7h52
		c1.5,0,2.8-1.2,2.8-2.8C232.4,162.6,231.1,161.4,229.6,161.4z"/>
</g>
</svg>
